<?xml version="1.0" encoding="utf-8"?>
<!-- Generator: Adobe Illustrator 26.0.2, SVG Export Plug-In . SVG Version: 6.00 Build 0)  -->
<svg version="1.1" id="图层_1" xmlns="http://www.w3.org/2000/svg" xmlns:xlink="http://www.w3.org/1999/xlink" x="0px" y="0px"
	 viewBox="0 0 231 156" style="enable-background:new 0 0 231 156;" xml:space="preserve">
<style type="text/css">
	.st0{font-family:'YouYuan';}
	.st1{font-size:42.6097px;}
	.st2{fill:#FFFFFF;stroke:#000000;stroke-width:5;stroke-miterlimit:10;}
	.st3{fill:#FFFFFF;stroke:#000000;stroke-width:3;stroke-miterlimit:10;}
	.st4{fill:none;stroke:#000000;stroke-miterlimit:10;}
</style>
<text transform="matrix(0.8776 0 0 1 2.625 149.3477)" class="st0 st1">耗材管理系统</text>
<path class="st2" d="M209.21,94.56h-61.91c-9.83,0-17.79-7.97-17.79-17.79V44.68c0-9.83,7.97-17.79,17.79-17.79h61.91
	c9.83,0,17.79,7.97,17.79,17.79v32.09C227,86.59,219.03,94.56,209.21,94.56z"/>
<ellipse class="st2" cx="196.5" cy="45.46" rx="4" ry="3.54"/>
<ellipse class="st2" cx="212.5" cy="45.46" rx="4" ry="3.54"/>
<rect x="156.5" y="82.62" class="st3" width="44" height="23.88"/>
<g>
	<g>
		<path d="M165.64,90.5c8.46,0,16.92,0,25.38,0c1.93,0,1.93-3,0-3c-8.46,0-16.92,0-25.38,0C163.71,87.5,163.71,90.5,165.64,90.5
			L165.64,90.5z"/>
	</g>
</g>
<g>
	<g>
		<path d="M165.34,96.2c8.46,0,16.92,0,25.38,0c1.93,0,1.93-3,0-3c-8.46,0-16.92,0-25.38,0C163.41,93.2,163.4,96.2,165.34,96.2
			L165.34,96.2z"/>
	</g>
</g>
<g>
	<g>
		<path d="M165.34,101.51c8.46,0,16.92,0,25.38,0c1.93,0,1.93-3,0-3c-8.46,0-16.92,0-25.38,0
			C163.41,98.51,163.4,101.51,165.34,101.51L165.34,101.51z"/>
	</g>
</g>
<rect x="158.5" y="11.85" class="st2" width="39" height="15.04"/>
<rect x="14.5" y="27.77" class="st2" width="96" height="50.42"/>
<g>
	<g>
		<path d="M24.82,44.01c10.7,0,21.4,0,32.1,0c1.93,0,1.93-3,0-3c-10.7,0-21.4,0-32.1,0C22.89,41.01,22.89,44.01,24.82,44.01
			L24.82,44.01z"/>
	</g>
</g>
<g>
	<g>
		<path d="M66.1,59.83c7.34,0,14.68,0,22.01,0c1.93,0,1.93-3,0-3c-7.34,0-14.68,0-22.01,0C64.17,56.83,64.16,59.83,66.1,59.83
			L66.1,59.83z"/>
	</g>
</g>
<g>
	<g>
		<path d="M13.11,77.42c-3.55,8.11-7.1,16.23-10.65,24.34c-0.77,1.75,1.82,3.28,2.59,1.51c3.55-8.11,7.1-16.23,10.65-24.34
			C16.47,77.18,13.88,75.65,13.11,77.42L13.11,77.42z"/>
	</g>
</g>
<g>
	<g>
		<path d="M109.11,78.93c3.55,8.11,7.1,16.23,10.65,24.34c0.77,1.76,3.36,0.24,2.59-1.51c-3.55-8.11-7.1-16.23-10.65-24.34
			C110.93,75.66,108.34,77.18,109.11,78.93L109.11,78.93z"/>
	</g>
</g>
<g>
	<g>
		<path d="M3.96,103.79c30.33,0,60.66,0,90.99,0c8.5,0,17,0,25.5,0c1.93,0,1.93-3,0-3c-30.33,0-60.66,0-90.99,0c-8.5,0-17,0-25.5,0
			C2.03,100.79,2.02,103.79,3.96,103.79L3.96,103.79z"/>
	</g>
</g>
<ellipse class="st2" cx="204.5" cy="56.96" rx="4" ry="3.54"/>
<g>
	<g>
		<path d="M21.78,87.99c1.41,0,2.82,0,4.22,0c0.78,0,1.54-0.69,1.5-1.5c-0.04-0.81-0.66-1.5-1.5-1.5c-1.41,0-2.82,0-4.22,0
			c-0.78,0-1.54,0.69-1.5,1.5C20.31,87.31,20.94,87.99,21.78,87.99L21.78,87.99z"/>
	</g>
</g>
<g>
	<g>
		<path d="M36.31,87.72c16.51,0,33.02,0,49.53,0c1.93,0,1.93-3,0-3c-16.51,0-33.02,0-49.53,0C34.38,84.72,34.37,87.72,36.31,87.72
			L36.31,87.72z"/>
	</g>
</g>
<g>
	<g>
		<path d="M21.32,94.62c18.32,0,36.64,0,54.96,0c5.22,0,10.44,0,15.67,0c1.93,0,1.93-3,0-3c-18.32,0-36.64,0-54.96,0
			c-5.22,0-10.44,0-15.67,0C19.39,91.62,19.38,94.62,21.32,94.62L21.32,94.62z"/>
	</g>
</g>
<rect x="163.5" y="3" class="st4" width="29" height="7.08"/>
</svg>
