<svg id="图层_1" data-name="图层 1" xmlns="http://www.w3.org/2000/svg" viewBox="0 0 283.94 134.24"><defs><style>.cls-1,.cls-2{fill:#fff;}.cls-1,.cls-2,.cls-3{stroke:#000;stroke-miterlimit:10;}.cls-1{stroke-width:5px;}.cls-2{stroke-width:3px;}.cls-3{fill:none;}</style></defs><rect class="cls-1" x="159.15" y="32.88" width="122.29" height="84.88" rx="17.79"/><ellipse class="cls-1" cx="243.19" cy="56.18" rx="5.02" ry="4.44"/><ellipse class="cls-1" cx="263.26" cy="56.18" rx="5.02" ry="4.44"/><rect class="cls-2" x="193.02" y="102.78" width="55.19" height="29.96"/><path d="M204.48,112.29h31.83a1.5,1.5,0,0,0,0-3H204.48a1.5,1.5,0,0,0,0,3Z"/><path d="M204.06,119.44h31.83a1.5,1.5,0,0,0,0-3H204.06a1.5,1.5,0,0,0,0,3Z"/><path d="M204.06,126.08h31.83a1.5,1.5,0,0,0,0-3H204.06a1.5,1.5,0,0,0,0,3Z"/><rect class="cls-1" x="195.53" y="14.02" width="48.92" height="18.86"/><rect class="cls-1" x="14.92" y="33.99" width="120.41" height="63.24"/><path d="M27.86,54H68.12a1.5,1.5,0,0,0,0-3H27.86a1.5,1.5,0,0,0,0,3Z"/><path d="M79.63,73.82h27.6a1.5,1.5,0,1,0,0-3H79.63a1.5,1.5,0,0,0,0,3Z"/><path d="M13.5,96.46.14,127c-.76,1.75,1.82,3.28,2.59,1.51L16.06,98c.76-1.75-1.82-3.28-2.59-1.51Z"/><path d="M133.9,98l13.36,30.53c.77,1.77,3.35.24,2.59-1.51L136.49,96.46C135.72,94.69,133.14,96.22,133.9,98Z"/><path d="M1.69,129h146.1a1.5,1.5,0,0,0,0-3H1.69a1.5,1.5,0,1,0,0,3Z"/><ellipse class="cls-1" cx="253.22" cy="70.6" rx="5.02" ry="4.44"/><path d="M24.06,109.15h5.3a1.5,1.5,0,0,0,0-3h-5.3a1.5,1.5,0,0,0-1.5,1.5A1.53,1.53,0,0,0,24.06,109.15Z"/><path d="M42.26,108.8h62.12a1.5,1.5,0,0,0,0-3H42.26a1.5,1.5,0,0,0,0,3Z"/><path d="M23.46,117.45h88.6a1.5,1.5,0,0,0,0-3H23.46a1.5,1.5,0,1,0,0,3Z"/><rect class="cls-3" x="201.8" y="2.92" width="36.37" height="8.88"/></svg>